HIERARCHY
ROOT joint_Root
{
	OFFSET 0.0 0.0 0.0
	CHANNELS 6 Xposition Yposition Zposition Zrotation Xrotation Yrotation 
	JOINT Hips
	{
		OFFSET 4.5925 91.4895 -427.239
		CHANNELS 6 Xposition Yposition Zposition Zrotation Xrotation Yrotation 
		JOINT Spine
		{
			OFFSET 15.7357 0.0 0.0
			CHANNELS 6 Xposition Yposition Zposition Zrotation Xrotation Yrotation 
			JOINT Chest
			{
				OFFSET 8.98455 -0.406207 0.0
				CHANNELS 6 Xposition Yposition Zposition Zrotation Xrotation Yrotation 
				JOINT Neck
				{
					OFFSET 16.3773 0.0 0.0
					CHANNELS 6 Xposition Yposition Zposition Zrotation Xrotation Yrotation 
					JOINT Head
					{
						OFFSET 6.45672 0.0 0.0
						CHANNELS 6 Xposition Yposition Zposition Zrotation Xrotation Yrotation 
						End Site
						{
							OFFSET 0.0 0.0 0.0
						}
					}
				}
				JOINT Shoulder_L
				{
					OFFSET 12.9942 -0.242716 4.98039
					CHANNELS 6 Xposition Yposition Zposition Zrotation Xrotation Yrotation 
					JOINT UpperArm_L
					{
						OFFSET 5.34809 0.0 0.0
						CHANNELS 6 Xposition Yposition Zposition Zrotation Xrotation Yrotation 
						JOINT LowerArm_L
						{
							OFFSET 24.3286 1.87007e-05 0.0
							CHANNELS 6 Xposition Yposition Zposition Zrotation Xrotation Yrotation 
							JOINT Hand_L
							{
								OFFSET 22.2916 0.0 0.0
								CHANNELS 6 Xposition Yposition Zposition Zrotation Xrotation Yrotation 
								End Site
								{
									OFFSET 0.0 0.0 0.0
								}
							}
						}
					}
				}
				JOINT Shoulder_R
				{
					OFFSET 12.9945 -0.242716 -4.98039
					CHANNELS 6 Xposition Yposition Zposition Zrotation Xrotation Yrotation 
					JOINT UpperArm_R
					{
						OFFSET -5.34813 0.0 0.0
						CHANNELS 6 Xposition Yposition Zposition Zrotation Xrotation Yrotation 
						JOINT LowerArm_R
						{
							OFFSET -24.3289 0.000322201 0.0
							CHANNELS 6 Xposition Yposition Zposition Zrotation Xrotation Yrotation 
							JOINT Hand_R
							{
								OFFSET -22.2915 -0.000108084 0.0
								CHANNELS 6 Xposition Yposition Zposition Zrotation Xrotation Yrotation 
								End Site
								{
									OFFSET 0.0 0.0 0.0
								}
							}
						}
					}
				}
			}
		}
		JOINT UpperLeg_L
		{
			OFFSET -2.19248 -6.46944 0.0
			CHANNELS 6 Xposition Yposition Zposition Zrotation Xrotation Yrotation 
			JOINT LowerLeg_L
			{
				OFFSET 39.0811 0.0 -1.23785e-05
				CHANNELS 6 Xposition Yposition Zposition Zrotation Xrotation Yrotation 
				JOINT Foot_L
				{
					OFFSET 40.9854 0.0 -1.26872e-05
					CHANNELS 6 Xposition Yposition Zposition Zrotation Xrotation Yrotation 
					JOINT Toes_L
					{
						OFFSET 11.7543 0.0 0.0
						CHANNELS 6 Xposition Yposition Zposition Zrotation Xrotation Yrotation 
						End Site
						{
							OFFSET 0.0 0.0 0.0
						}
					}
				}
			}
		}
		JOINT UpperLeg_R
		{
			OFFSET -2.19251 6.46944 0.0
			CHANNELS 6 Xposition Yposition Zposition Zrotation Xrotation Yrotation 
			JOINT LowerLeg_R
			{
				OFFSET -39.0811 -0.00228153 -0.0401928
				CHANNELS 6 Xposition Yposition Zposition Zrotation Xrotation Yrotation 
				JOINT Foot_R
				{
					OFFSET -40.9854 0.0 0.0
					CHANNELS 6 Xposition Yposition Zposition Zrotation Xrotation Yrotation 
					JOINT Toes_R
					{
						OFFSET -11.7543 0.0 0.0
						CHANNELS 6 Xposition Yposition Zposition Zrotation Xrotation Yrotation 
						End Site
						{
							OFFSET 0.0 0.0 0.0
						}
					}
				}
			}
		}
	}
}
MOTION
Frames:	7
Frame Time:	0.0333333
0.000000 0.000000 0.000000 0.000000 0.000000 -0.000000 -1.215820 90.267000 -2.129330 88.555000 -2.275730 11.286600 15.735700 0.000005 -0.000001 90.380800 77.563800 -90.422100 8.984550 -0.406207 -0.000000 17.106000 0.159163 -0.106835 16.377300 -0.000001 -0.000001 4.536140 -2.771650 0.157542 6.456720 -0.000001 -0.000000 -5.354320 -1.805580 -1.762990 12.994200 -0.242716 4.980390 -91.224600 6.447230 -79.221400 5.348090 -0.000007 -0.000001 -55.690000 36.243100 -28.888500 24.328600 0.000019 0.000005 8.427140 18.595200 -24.919700 22.291600 -0.000001 0.000005 12.410600 5.209330 2.484560 12.994500 -0.242716 -4.980390 89.286700 10.280800 -86.009400 -5.348130 -0.000001 -0.000004 -56.342300 36.363100 -24.757900 -24.328900 0.000322 -0.000009 1.034370 2.871590 -19.837700 -22.291500 -0.000108 -0.000004 15.200100 5.418840 -3.560010 -2.192480 -6.469440 -0.000000 -172.601000 -13.631300 -2.289640 39.081100 -0.000007 -0.000012 -0.232780 0.336286 34.691700 40.985400 -0.000006 -0.000013 -0.117106 5.529260 -70.555900 11.754300 -0.000000 0.000003 -0.000155 -0.001492 -16.634200 -2.192510 6.469440 -0.000001 174.840000 22.339100 179.918000 -39.081100 -0.002282 -0.040193 -0.194521 0.302751 33.160600 -40.985400 0.000008 0.000006 4.956660 13.460900 -71.474800 -11.754300 -0.000006 -0.000006 -0.001632 -0.024009 -17.549400
0.000000 0.000000 0.000000 0.000000 0.000000 -0.000000 -1.206730 90.267700 -2.126370 88.556300 -2.247090 11.297300 15.735700 0.000005 -0.000001 90.339000 77.562400 -90.372900 8.984550 -0.406207 -0.000000 17.108800 0.141961 -0.089284 16.377300 -0.000001 -0.000001 4.564580 -2.791300 0.175452 6.456720 -0.000001 -0.000000 -5.435630 -1.842640 -1.822160 12.994200 -0.242716 4.980390 -91.242800 6.496780 -79.145800 5.348090 -0.000007 -0.000001 -56.185200 35.524500 -28.420700 24.328600 0.000019 0.000005 8.646960 17.978100 -26.229600 22.291600 -0.000001 0.000005 12.768500 5.209780 2.472980 12.994500 -0.242716 -4.980390 89.288600 10.261100 -86.012700 -5.348130 -0.000001 -0.000004 -56.306700 36.393500 -24.781800 -24.328900 0.000322 -0.000009 1.025350 2.842780 -19.861900 -22.291500 -0.000108 -0.000004 15.183600 5.418030 -3.532790 -2.192480 -6.469440 -0.000000 -172.615000 -13.597400 -2.285620 39.081100 -0.000007 -0.000012 -0.234554 0.338867 34.690300 40.985400 -0.000006 -0.000013 -0.113266 5.516460 -70.553300 11.754300 -0.000000 0.000003 -0.000159 -0.001528 -16.635500 -2.192510 6.469440 -0.000001 174.820000 22.379300 179.940000 -39.081100 -0.002282 -0.040193 -0.193294 0.300933 33.155300 -40.985400 0.000008 0.000006 4.957100 13.483800 -71.475900 -11.754300 -0.000006 -0.000006 -0.001589 -0.023445 -17.526500
0.000000 0.000000 0.000000 0.000000 0.000000 -0.000000 -1.204770 90.268200 -2.123240 88.556700 -2.227200 11.253100 15.735700 0.000005 -0.000001 90.361500 77.566800 -90.395700 8.984550 -0.406207 -0.000000 17.099900 0.151503 -0.091195 16.377300 -0.000001 -0.000001 4.496140 -2.817720 0.191993 6.456720 -0.000001 -0.000000 -5.425300 -1.890950 -1.818140 12.994200 -0.242716 4.980390 -91.252900 6.523670 -79.103900 5.348090 -0.000007 -0.000001 -56.744800 34.625500 -27.998900 24.328600 0.000019 0.000005 8.869450 17.287000 -27.705800 22.291600 -0.000001 0.000005 13.282500 5.213910 2.368030 12.994500 -0.242716 -4.980390 89.285300 10.275900 -85.999700 -5.348130 -0.000001 -0.000004 -56.255300 36.389800 -24.823400 -24.328900 0.000322 -0.000009 1.007760 2.792540 -19.871600 -22.291500 -0.000108 -0.000004 15.185200 5.418540 -3.550090 -2.192480 -6.469440 -0.000000 -172.626000 -13.617300 -2.331910 39.081100 -0.000007 -0.000012 -0.234723 0.339108 34.690600 40.985400 -0.000006 -0.000013 -0.099704 5.544020 -70.553800 11.754300 -0.000000 0.000003 -0.000151 -0.001463 -16.633200 -2.192510 6.469440 -0.000001 174.826000 22.403100 179.899000 -39.081100 -0.002282 -0.040193 -0.194065 0.302107 33.156000 -40.985400 0.000008 0.000006 4.974570 13.482500 -71.484500 -11.754300 -0.000006 -0.000006 -0.001694 -0.024816 -17.582200
0.000000 0.000000 0.000000 0.000000 0.000000 -0.000000 -1.198580 90.272700 -2.123180 88.576900 -2.177480 11.252400 15.735700 0.000005 -0.000001 90.359500 77.571400 -90.400200 8.984550 -0.406207 -0.000000 17.090800 0.150069 -0.103984 16.377300 -0.000001 -0.000001 4.493880 -2.852190 0.219579 6.456720 -0.000001 -0.000000 -5.418690 -1.919930 -1.836900 12.994200 -0.242716 4.980390 -91.267900 6.563300 -79.041700 5.348090 -0.000007 -0.000001 -57.467400 33.409300 -27.507500 24.328600 0.000019 0.000005 9.378820 16.992600 -29.473400 22.291600 -0.000001 0.000005 13.586200 5.214120 2.362520 12.994500 -0.242716 -4.980390 89.281300 10.279000 -85.979000 -5.348130 -0.000001 -0.000004 -56.290000 36.359500 -24.776300 -24.328900 0.000322 -0.000009 1.013000 2.805930 -19.879000 -22.291500 -0.000108 -0.000004 15.218500 5.418590 -3.551720 -2.192480 -6.469440 -0.000000 -172.673000 -13.566800 -2.324880 39.081100 -0.000007 -0.000012 -0.229677 0.332176 34.661700 40.985400 -0.000006 -0.000013 -0.096284 5.526730 -70.542100 11.754300 -0.000000 0.000003 -0.000149 -0.001446 -16.632500 -2.192510 6.469440 -0.000001 174.784000 22.430700 179.915000 -39.081100 -0.002282 -0.040193 -0.195021 0.303737 33.141500 -40.985400 0.000008 0.000006 4.966660 13.502200 -71.481900 -11.754300 -0.000006 -0.000006 -0.001702 -0.024917 -17.586300
0.000000 0.000000 0.000000 0.000000 0.000000 -0.000000 -1.202920 90.274200 -2.120660 88.577200 -2.152040 11.248300 15.735700 0.000005 -0.000001 90.386100 77.563000 -90.429800 8.984550 -0.406207 -0.000000 17.107600 0.161269 -0.111742 16.377300 -0.000001 -0.000001 4.446070 -2.878840 0.229308 6.456720 -0.000001 -0.000000 -5.414810 -1.961690 -1.845740 12.994200 -0.242716 4.980390 -91.289100 6.602790 -78.927400 5.348090 -0.000007 -0.000001 -58.082200 32.099600 -27.213500 24.328600 0.000019 0.000005 9.898800 16.645300 -31.350200 22.291600 -0.000001 0.000005 14.224100 5.212900 2.393700 12.994500 -0.242716 -4.980390 89.283500 10.273500 -85.989100 -5.348130 -0.000001 -0.000004 -56.219900 36.405800 -24.848000 -24.328900 0.000322 -0.000009 0.984263 2.731800 -19.842300 -22.291500 -0.000108 -0.000004 15.209300 5.419850 -3.593820 -2.192480 -6.469440 -0.000000 -172.664000 -13.575400 -2.329430 39.081100 -0.000007 -0.000012 -0.231688 0.335178 34.654100 40.985400 -0.000006 -0.000013 -0.092388 5.558180 -70.533700 11.754300 -0.000000 0.000003 -0.000148 -0.001435 -16.632100 -2.192510 6.469440 -0.000001 174.792000 22.459200 179.916000 -39.081100 -0.002282 -0.040193 -0.192480 0.299867 33.139600 -40.985400 0.000008 0.000006 5.001070 13.465500 -71.492200 -11.754300 -0.000006 -0.000006 -0.001729 -0.025269 -17.600600
0.000000 0.000000 0.000000 0.000000 0.000000 -0.000000 -1.207360 90.271900 -2.118930 88.580900 -2.102930 11.262700 15.735700 0.000005 -0.000001 90.404600 77.555400 -90.451600 8.984550 -0.406207 -0.000000 17.122700 0.169014 -0.119467 16.377300 -0.000001 -0.000001 4.427480 -2.911950 0.225519 6.456720 -0.000001 -0.000000 -5.427270 -2.023610 -1.862640 12.994200 -0.242716 4.980390 -91.309400 6.648440 -78.832300 5.348090 -0.000007 -0.000001 -58.432400 30.833500 -27.142700 24.328600 0.000019 0.000005 10.432700 16.283000 -33.292100 22.291600 -0.000001 0.000005 14.832100 5.212290 2.409130 12.994500 -0.242716 -4.980390 89.278700 10.269200 -85.960700 -5.348130 -0.000001 -0.000004 -56.228300 36.363000 -24.849700 -24.328900 0.000322 -0.000009 0.949421 2.630080 -19.877300 -22.291500 -0.000108 -0.000004 15.088900 5.417730 -3.522500 -2.192480 -6.469440 -0.000000 -172.667000 -13.517800 -2.325680 39.081100 -0.000007 -0.000012 -0.233403 0.337584 34.660100 40.985400 -0.000006 -0.000013 -0.100033 5.564160 -70.533800 11.754300 -0.000000 0.000003 -0.000154 -0.001485 -16.634000 -2.192510 6.469440 -0.000001 174.772000 22.485700 179.941000 -39.081100 -0.002282 -0.040193 -0.194461 0.302947 33.135700 -40.985400 0.000008 0.000006 4.912290 13.469900 -71.472300 -11.754300 -0.000006 -0.000006 -0.001516 -0.022486 -17.487400
0.000000 0.000000 0.000000 0.000000 0.000000 -0.000000 -1.217560 90.269500 -2.133140 88.588600 -2.059540 11.269300 15.735700 0.000005 -0.000001 90.414300 77.542200 -90.469900 8.984550 -0.406207 -0.000000 17.149100 0.172613 -0.137399 16.377300 -0.000001 -0.000001 4.393750 -2.954070 0.226991 6.456720 -0.000001 -0.000000 -5.430120 -2.057540 -1.880720 12.994200 -0.242716 4.980390 -91.326000 6.683440 -78.751200 5.348090 -0.000007 -0.000001 -58.650500 29.399400 -27.237700 24.328600 0.000019 0.000005 11.403500 16.406900 -35.529100 22.291600 -0.000001 0.000005 15.342100 5.212930 2.392200 12.994500 -0.242716 -4.980390 89.279400 10.279200 -85.968000 -5.348130 -0.000001 -0.000004 -56.194600 36.357000 -24.880400 -24.328900 0.000322 -0.000009 0.944952 2.617760 -19.876900 -22.291500 -0.000108 -0.000004 15.101900 5.418900 -3.562090 -2.192480 -6.469440 -0.000000 -172.682000 -13.482000 -2.349230 39.081100 -0.000007 -0.000012 -0.233481 0.337524 34.673800 40.985400 -0.000006 -0.000013 -0.102497 5.559730 -70.522100 11.754300 -0.000000 0.000003 -0.000155 -0.001489 -16.634100 -2.192510 6.469440 -0.000001 174.765000 22.518600 179.933000 -39.081100 -0.002282 -0.040193 -0.193552 0.301209 33.165700 -40.985400 0.000008 0.000006 4.995570 13.445000 -71.506900 -11.754300 -0.000006 -0.000006 -0.001632 -0.024013 -17.549600
